<svg xmlns="http://www.w3.org/2000/svg" width="192" height="192" viewBox="0 0 192 192" fill="none">
  <rect width="192" height="192" rx="24" fill="#B80000"/>
  <path d="M59.308 135V53.636H82.184C87.532 53.636 92.064 54.596 95.78 56.516C99.496 58.404 102.308 61.048 104.216 64.448C106.156 67.816 107.126 71.724 107.126 76.172C107.126 80.588 106.156 84.48 104.216 87.848C102.308 91.216 99.496 93.844 95.78 95.732C92.064 97.62 87.532 98.564 82.184 98.564H68.876V135H59.308ZM68.876 90.424H82.184C86.328 90.424 89.54 89.172 91.82 86.668C94.132 84.132 95.288 80.62 95.288 76.172C95.288 71.692 94.132 68.18 91.82 65.644C89.54 63.108 86.328 61.84 82.184 61.84H68.876V90.424ZM112.741 135V53.636H136.813C142.161 53.636 146.693 54.548 150.409 56.372C154.125 58.164 156.933 60.712 158.841 64.016C160.781 67.288 161.751 71.148 161.751 75.596C161.751 80.012 160.781 83.856 158.841 87.128C156.933 90.368 154.125 92.9 150.409 94.724C146.693 96.516 142.161 97.412 136.813 97.412H122.309V135H112.741ZM122.309 89.272H136.813C140.957 89.272 144.169 88.036 146.449 85.564C148.761 83.06 149.917 79.68 149.917 75.596C149.917 71.48 148.761 68.1 146.449 65.596C144.169 63.092 140.957 61.84 136.813 61.84H122.309V89.272Z" fill="white"/>
</svg>