<svg xmlns="http://www.w3.org/2000/svg" width="72" height="72" viewBox="0 0 72 72" fill="none">
  <rect width="72" height="72" rx="10" fill="#B80000"/>
  <path d="M22.241 50.625V20.114H30.819C33.075 20.114 34.983 20.473 36.544 21.194C38.105 21.903 39.259 22.894 40.006 24.168C40.766 25.431 41.146 26.897 41.146 28.565C41.146 30.22 40.766 31.68 40.006 32.943C39.259 34.206 38.105 35.191 36.544 35.9C34.983 36.608 33.075 36.962 30.819 36.962H25.829V50.625H22.241ZM25.829 33.905H30.819C32.373 33.905 33.581 33.447 34.432 32.501C35.296 31.55 35.728 30.233 35.728 28.565C35.728 26.885 35.296 25.568 34.432 24.616C33.581 23.666 32.373 23.19 30.819 23.19H25.829V33.905ZM42.278 50.625V20.114H51.305C53.56 20.114 55.469 20.456 57.03 21.14C58.592 21.812 59.745 22.767 60.493 24.006C61.253 25.233 61.633 26.681 61.633 28.349C61.633 30.004 61.253 31.446 60.493 32.673C59.745 33.888 58.592 34.837 57.03 35.522C55.469 36.194 53.56 36.53 51.305 36.53H45.866V50.625H42.278ZM45.866 33.472H51.305C52.859 33.472 54.067 33.014 54.918 32.086C55.783 31.146 56.215 29.88 56.215 28.349C56.215 26.804 55.783 25.538 54.918 24.598C54.067 23.659 52.859 23.19 51.305 23.19H45.866V33.472Z" fill="white"/>
</svg>